<?xml version="1.0" standalone="no"?>
<!DOCTYPE svg PUBLIC "-//W3C//DTD SVG 20010904//EN"
 "http://www.w3.org/TR/2001/REC-SVG-20010904/DTD/svg10.dtd">
<svg version="1.0" xmlns="http://www.w3.org/2000/svg"
 width="1200.000000pt" height="1200.000000pt" viewBox="0 0 1200.000000 1200.000000"
 preserveAspectRatio="xMidYMid meet">

<g transform="translate(0.000000,1200.000000) scale(0.100000,-0.100000)"
fill="#000000" stroke="none">
<path d="M5800 11994 c-540 -24 -1000 -98 -1483 -238 -1338 -389 -2525 -1262
-3304 -2431 -580 -870 -908 -1822 -994 -2885 -15 -187 -15 -693 0 -880 86
-1063 413 -2013 994 -2885 491 -737 1161 -1374 1922 -1827 807 -480 1677 -754
2635 -829 198 -16 659 -16 860 0 1348 103 2573 625 3575 1522 1064 953 1760
2274 1939 3681 37 290 49 474 49 778 0 304 -12 488 -49 778 -179 1410 -869
2718 -1941 3682 -986 887 -2233 1421 -3553 1519 -151 12 -535 20 -650 15z
m580 -1319 c895 -87 1699 -350 2438 -796 165 -100 390 -251 495 -334 l57 -45
0 -785 c0 -432 -2 -785 -3 -785 -2 0 -80 75 -173 168 -644 638 -1379 1092
-2154 1331 -391 121 -841 191 -1227 191 -616 0 -1068 -224 -1252 -622 -55
-118 -73 -208 -72 -358 1 -316 115 -559 358 -769 198 -172 489 -313 918 -446
185 -57 509 -141 935 -240 981 -230 1402 -360 1828 -566 827 -399 1259 -953
1383 -1773 26 -172 36 -500 20 -661 -105 -1035 -843 -2011 -1906 -2521 -1190
-571 -2661 -541 -4165 86 -505 210 -1036 528 -1364 817 l-36 32 2 946 3 946
80 -108 c318 -429 741 -826 1209 -1137 631 -419 1334 -680 2028 -751 185 -19
519 -19 658 -1 411 56 771 211 1017 440 197 184 293 382 293 606 0 269 -97
490 -302 686 -288 275 -699 447 -1699 714 -881 236 -1164 322 -1540 471 -1073
424 -1641 1043 -1788 1948 -42 257 -50 559 -20 804 126 1055 890 1903 2081
2312 290 100 660 179 949 204 68 6 142 13 164 15 92 9 632 -4 785 -19z"/>
</g>
</svg>
